# xmcd
#
# Track frame offsets: 
#        150
#        13860
#        32780
#        43172
#        54232
#        67887
#        79683
#        94827
#        106426
#        122631
#        131350
#        140256
#        152726
#        167276
#        179120
#        197811
#        208368
#        220402
#        237596
#        248954
#        263851
#        272898
#
# Disc length: 3854 seconds
#
# Revision: 0
# Processed by: cddbd v1.5.2PL0 Copyright (c) Steve Scherf et al.
# Submitted via: ExactAudioCopy v0.99pb3
#
DISCID=480f0c16
DTITLE=Flamin´ Groovies - At Full Speed CD2
DYEAR=2006
DGENRE=Rock and Roll
TTITLE0=All i wanted
TTITLE1=Don´t put me on
TTITLE2=House of blue lights
TTITLE3=Blue turns to grey
TTITLE4=Paint it black
TTITLE5=Next one crying
TTITLE6=Jumpin´ in the night
TTITLE7=Yes i am
TTITLE8=Werewolfs of London
TTITLE9=It won´t be long
TTITLE10=Please please me
TTITLE11=Down down down
TTITLE12=Absolutely sweet Marie
TTITLE13=You are my wonderful one
TTITLE14=19th nerveous breakdown
TTITLE15=Boys
TTITLE16=5D
TTITLE17=First plane home
TTITLE18=Lady friend
TTITLE19=In the U.S.A.
TTITLE20=Tell me again
TTITLE21=Shake some action (demo)
EXTD=
EXTT0=
EXTT1=
EXTT2=
EXTT3=
EXTT4=
EXTT5=
EXTT6=
EXTT7=
EXTT8=
EXTT9=
EXTT10=
EXTT11=
EXTT12=
EXTT13=
EXTT14=
EXTT15=
EXTT16=
EXTT17=
EXTT18=
EXTT19=
EXTT20=
EXTT21=
PLAYORDER=
